<svg width="1890" height="1890" viewBox="0 0 1890 1890" fill="none" xmlns="http://www.w3.org/2000/svg">
<circle cx="945" cy="945" r="900" fill="#18191A" stroke="#38FF9C" stroke-width="90"/>
<path d="M423.008 1394.28C423.016 1394.28 423.024 1394.29 423.031 1394.29C424.578 1395.34 427.092 1396.72 431.001 1398.08C438.816 1400.8 452.215 1403.47 474.627 1403.35C496.999 1403.23 633.062 1403.23 763.536 1403.26C828.772 1403.27 892.609 1403.3 940.138 1403.31C963.902 1403.32 983.589 1403.33 997.335 1403.34L1013.27 1403.35L1017.45 1403.35L1018.05 1403.35L906.532 1610.41H906.328L904.854 1610.41L899.196 1610.41L878.462 1610.41C860.997 1610.42 836.97 1610.42 810.725 1610.42C758.236 1610.42 696.873 1610.42 661.379 1610.41C623.956 1610.4 593.354 1604.37 566.131 1588.75C538.906 1573.12 515.011 1547.86 491.056 1509.28C455.364 1451.81 445.144 1434.06 423.008 1394.28ZM725.84 768.245L725.412 767.988L725.84 768.245C735.252 752.586 746.127 734.45 756.653 716.898L757.854 714.894C758.742 713.414 759.616 711.946 760.482 710.491C767.068 699.423 773.154 689.195 780.86 681.44C789.546 672.698 800.284 667.11 816.124 667.122L816.124 666.622C816.124 667.122 816.127 667.122 816.131 667.122H816.152L816.233 667.122L816.558 667.122L817.843 667.121L822.861 667.118L841.963 667.108C858.451 667.099 882.075 667.086 910.622 667.073C967.715 667.045 1044.5 667.013 1123.26 666.991C1280.77 666.947 1446.18 666.947 1477.77 667.122C1515.71 667.329 1541.97 670.828 1564.9 685.117C1587.83 699.413 1607.48 724.555 1632.08 768.233C1636.88 776.753 1641.29 784.525 1645.35 791.672C1662.12 821.201 1672.84 840.077 1679.63 857.045C1688.04 878.078 1690.41 896.174 1690.72 928.039C1691.02 959.876 1687.07 979.765 1677.71 1001.03C1671.23 1015.76 1662.16 1031.15 1650.1 1051.61C1644.7 1060.76 1638.71 1070.93 1632.08 1082.5C1625.74 1093.57 1617.19 1108.54 1607.05 1126.29C1548.6 1228.59 1437.29 1423.39 1391.97 1498.62C1365.41 1542.72 1337.48 1570.66 1306.88 1587.58C1276.29 1604.5 1242.99 1610.42 1205.65 1610.41H1099.78L1100.09 1609.87L1102.22 1606.11C1104.08 1602.82 1106.82 1597.98 1110.32 1591.81C1117.31 1579.45 1127.33 1561.75 1139.44 1540.33C1163.67 1497.5 1196.29 1439.83 1229.81 1380.49C1296.86 1261.82 1367.56 1136.44 1382.17 1109.66C1389.42 1096.36 1396.04 1085.44 1401.9 1075.77L1402 1075.6C1407.88 1065.89 1413 1057.44 1417.2 1049.14C1425.61 1032.51 1430.33 1016.48 1430.26 992.055C1430.18 967.698 1427.65 936.755 1411.64 911.966C1395.61 887.132 1366.12 868.571 1312.36 868.854V868.864C1312.36 868.854 1312.36 868.854 1312.36 868.854H1312.34L1312.27 868.854L1311.98 868.853L1310.85 868.852L1306.44 868.848L1300.58 868.842L1289.64 868.832C1275.14 868.818 1254.37 868.799 1229.29 868.778C1179.14 868.736 1111.75 868.685 1042.81 868.651C904.943 868.584 760.868 868.584 736.078 868.854C715.111 869.079 701.704 867.259 693.634 863.674C689.611 861.887 686.943 859.674 685.315 857.083C683.687 854.494 683.068 851.479 683.226 848.034C683.383 844.604 684.639 840.345 686.831 835.248C689.021 830.158 692.128 824.27 695.955 817.59C700.505 809.647 706.056 800.612 712.274 790.494C716.521 783.583 721.079 776.165 725.84 768.245ZM1476.04 504.274C1476.03 504.269 1476.02 504.263 1476.01 504.257C1474.47 503.21 1471.95 501.835 1468.04 500.473C1460.23 497.75 1446.83 495.078 1424.42 495.203C1402.05 495.327 1265.98 495.327 1135.51 495.296C1070.27 495.28 1006.43 495.257 958.902 495.238C935.138 495.228 915.45 495.219 901.704 495.213L885.773 495.205L881.587 495.203L880.989 495.203L992.506 288.104L992.71 288.104L994.184 288.104L999.842 288.103L1020.58 288.101C1038.04 288.099 1062.07 288.097 1088.31 288.095C1140.8 288.092 1202.17 288.092 1237.66 288.104C1275.09 288.116 1305.69 294.141 1332.91 309.771C1360.14 325.403 1384.03 350.67 1407.98 389.253C1443.68 446.734 1453.9 464.486 1476.04 504.274ZM799.26 288.104L798.954 288.645L796.827 292.402C794.963 295.697 792.224 300.536 788.729 306.714C781.737 319.069 771.717 336.779 759.601 358.199C735.37 401.038 702.757 458.715 669.232 518.065C602.182 636.763 531.477 762.163 516.87 788.943C509.623 802.229 503.007 813.149 497.153 822.812L497.033 823.01C491.152 832.717 486.036 841.169 481.839 849.473C473.431 866.106 468.708 882.143 468.788 906.575C468.868 930.938 471.399 961.886 487.404 986.68C503.437 1011.52 532.924 1030.08 586.681 1029.8L586.681 1029.79C586.682 1029.8 586.683 1029.8 586.684 1029.8L586.702 1029.8L586.774 1029.8L587.06 1029.8L588.191 1029.8L592.606 1029.81L598.415 1029.81L609.407 1029.82C623.906 1029.83 644.674 1029.85 669.75 1029.87C719.903 1029.92 787.29 1029.97 856.226 1030C994.096 1030.07 1138.17 1030.07 1162.96 1029.8C1183.93 1029.57 1197.34 1031.39 1205.41 1034.97C1209.43 1036.76 1212.1 1038.98 1213.73 1041.57C1215.36 1044.16 1215.98 1047.17 1215.82 1050.62C1215.66 1054.05 1214.41 1058.31 1212.21 1063.41C1210.02 1068.5 1206.92 1074.39 1203.09 1081.07C1198.54 1089.01 1193 1098.03 1186.79 1108.14C1182.53 1115.07 1177.97 1122.49 1173.2 1130.43C1165.48 1143.28 1156.77 1157.8 1148.07 1172.29C1145.77 1176.14 1143.47 1179.98 1141.18 1183.78C1140.3 1185.26 1139.42 1186.73 1138.56 1188.18C1131.97 1199.25 1125.89 1209.48 1118.18 1217.24C1109.5 1225.98 1098.76 1231.57 1082.92 1231.56L1082.92 1232.06C1082.92 1231.56 1082.92 1231.56 1082.91 1231.56H1082.89H1082.81L1082.49 1231.56L1081.2 1231.56L1076.18 1231.56L1057.08 1231.58C1040.59 1231.58 1016.97 1231.6 988.422 1231.61C931.328 1231.64 854.546 1231.67 775.788 1231.69C618.272 1231.74 452.861 1231.74 421.27 1231.56C383.332 1231.35 357.069 1227.86 334.148 1213.56C311.215 1199.27 291.557 1174.12 266.958 1130.44C262.173 1121.94 257.771 1114.19 253.721 1107.05C236.932 1077.49 226.203 1058.59 219.411 1041.61C210.998 1020.57 208.63 1002.47 208.33 970.596C208.031 938.753 211.982 918.862 221.339 897.59C227.819 882.858 236.885 867.475 248.947 847.008C254.34 837.857 260.332 827.689 266.96 816.109C273.193 805.218 281.566 790.561 291.49 773.19C349.802 671.118 461.622 475.382 507.069 399.919C533.63 355.816 561.562 327.869 592.157 310.944C622.752 294.02 656.055 288.092 693.401 288.104H799.26Z" fill="#38FF9C" stroke="#38FF9C"/>
</svg>
