<svg width="41" height="42" viewBox="0 0 41 42" fill="none" xmlns="http://www.w3.org/2000/svg">
<g clip-path="url(#clip0_47_1813)">
<path d="M1.74024 0.501465H38.8648C39.8259 0.501465 40.605 1.28058 40.605 2.24168V39.3662C40.605 40.3273 39.8259 41.1064 38.8648 41.1064H1.74024C0.779148 41.1064 3.05176e-05 40.3273 3.05176e-05 39.3662V2.24168C3.05176e-05 1.28058 0.779148 0.501465 1.74024 0.501465Z" fill="#4141FC"/>
<path d="M20.3004 32.9449C18.3102 32.9449 16.3184 32.9449 14.3282 32.9449C13.6137 32.9449 13.4444 32.8199 13.3137 32.1006C13.0428 30.6038 12.7976 29.1037 12.5363 27.6053C12.1557 25.4217 11.7687 23.2397 11.3913 21.0561C11.0751 19.2297 10.7704 17.4017 10.4558 15.5737C10.1301 13.7051 9.79943 11.8364 9.47523 9.9678C9.44135 9.76814 9.42041 9.56355 9.42041 9.36226C9.42366 8.94664 9.63817 8.68364 10.0446 8.67876C11.3574 8.6609 12.6702 8.66739 13.983 8.67552C14.4201 8.67876 14.5652 9.01648 14.6427 9.36551C14.7766 9.97267 14.8862 10.5863 14.9943 11.2C15.2685 12.7553 15.5362 14.3106 15.8071 15.8659C16.2409 18.3482 16.6716 20.8305 17.1102 23.3128C17.2409 24.0547 17.3796 24.795 17.5328 25.5321C17.8118 26.8763 18.9101 27.7919 20.2665 27.8293C21.5665 27.865 22.7615 26.9916 23.1002 25.7058C23.426 24.4719 23.5727 23.2024 23.8002 21.9474C24.1985 19.7379 24.5856 17.5267 24.9727 15.3155C25.2807 13.546 25.5807 11.7763 25.8839 10.0068C25.8968 9.93531 25.9017 9.86228 25.9145 9.79088C26.0887 8.77453 26.2178 8.66415 27.229 8.66415C28.2822 8.66415 29.3353 8.6609 30.3885 8.66577C31.0449 8.66902 31.3142 8.93527 31.2158 9.57492C30.9707 11.1627 30.6933 12.7472 30.4223 14.3317C30.0482 16.5153 29.6692 18.6988 29.2902 20.8824C28.9708 22.7234 28.645 24.5645 28.3257 26.4055C28.008 28.2319 27.6934 30.0583 27.3774 31.8847C27.3596 31.9854 27.3435 32.0844 27.3226 32.1835C27.1951 32.7744 27.0016 32.94 26.4048 32.94C24.3711 32.9432 22.3374 32.94 20.302 32.94L20.3004 32.9449Z" fill="white"/>
</g>
<defs>
<clipPath id="clip0_47_1813">
<rect width="40.6049" height="40.6049" fill="white" transform="translate(0 0.501465)"/>
</clipPath>
</defs>
</svg>