<svg width="250" height="250" viewBox="0 0 250 250" fill="none" xmlns="http://www.w3.org/2000/svg">
<circle cx="125" cy="125" r="125" fill="#010101"/>
<path fill-rule="evenodd" clip-rule="evenodd" d="M198.997 64.0795C198.997 64.0795 197.8 62.5628 191.586 62.5974C185.372 62.632 115.993 62.5974 115.993 62.5974L131.556 33.6948C131.556 33.6948 155.788 33.6916 165.647 33.6948C176.058 33.698 182.702 37.0471 189.362 47.7761C194.417 55.9154 195.794 58.3206 198.997 64.0795Z" fill="#F0F0EA"/>
<path fill-rule="evenodd" clip-rule="evenodd" d="M104.877 33.6948C104.877 33.6948 69.6553 95.9207 65.5984 103.358C61.5415 110.796 58.9066 112.899 58.9288 119.663C58.9511 126.426 60.3369 136.786 75.2331 136.708C75.2331 136.708 148.386 136.782 155.271 136.708C161.099 136.645 162.773 137.716 162.683 139.672C162.593 141.629 160.01 145.372 156.754 150.789C155.397 153.047 153.821 155.675 152.307 158.2C150.19 161.731 148.595 164.873 144.155 164.869C144.155 164.869 61.0351 164.918 52.2592 164.869C41.7163 164.812 37.6018 162.927 30.7669 150.789C23.9321 138.651 22.6985 137.416 22.6152 128.556C22.532 119.695 24.8148 117.464 30.7674 107.064C36.7199 96.6634 56.7299 61.5237 64.1167 49.2582C71.5035 36.9928 79.6667 33.6914 90.0556 33.6948H104.877Z" fill="#F0F0EA"/>
<path fill-rule="evenodd" clip-rule="evenodd" d="M52.2593 187.108C52.2593 187.108 53.4549 188.625 59.6699 188.59C65.885 188.555 135.262 188.59 135.262 188.59L119.699 217.487C119.699 217.487 95.4675 217.491 85.608 217.487C75.1977 217.484 68.5545 214.135 61.8931 203.409C56.8391 195.27 55.4615 192.866 52.2593 187.108Z" fill="#F0F0EA"/>
<path fill-rule="evenodd" clip-rule="evenodd" d="M146.379 217.487C146.379 217.487 181.601 155.273 185.657 147.836C189.713 140.399 192.348 138.297 192.327 131.535C192.306 124.774 190.919 114.415 176.023 114.493C176.023 114.493 102.869 114.418 95.9837 114.493C90.1572 114.556 88.4833 113.485 88.573 111.529C88.6628 109.573 91.2458 105.83 94.5015 100.415C95.8585 98.157 97.4345 95.5287 98.9479 93.0049C101.066 89.4742 102.661 86.3329 107.1 86.3362C107.1 86.3362 190.221 86.2876 198.997 86.3362C209.54 86.3938 213.654 88.2786 220.488 100.415C227.323 112.551 228.557 113.784 228.641 122.643C228.725 131.502 226.442 133.733 220.488 144.132C214.535 154.531 194.526 189.664 187.139 201.928C179.751 214.191 171.589 217.491 161.201 217.487H146.379Z" fill="#F0F0EA"/>
</svg>
