<svg width="250" height="250" viewBox="0 0 250 250" fill="none" xmlns="http://www.w3.org/2000/svg">
<circle cx="125" cy="125" r="125" fill="#F0F0EA"/>
<g clip-path="url(#clip0_356_6)">
<path d="M182.74 63.4683L161.018 187.894C160.867 188.756 160.411 189.538 159.73 190.103C159.049 190.667 158.187 190.976 157.296 190.977H89.2812C88.3902 190.976 87.528 190.667 86.847 190.103C86.166 189.538 85.7099 188.756 85.5593 187.894L63.84 63.4683C63.747 62.9359 63.7736 62.3899 63.9178 61.8686C64.0619 61.3473 64.3202 60.8632 64.6747 60.4501C65.0291 60.037 65.4711 59.7049 65.9698 59.4769C66.4685 59.249 67.0119 59.1308 67.5619 59.1305H88.0343C88.9237 59.1306 89.7845 59.4387 90.4653 60.0008C91.146 60.5628 91.6032 61.3425 91.7561 62.2029L107.407 150.148C108.919 158.311 115.293 163.751 123.391 163.751C131.277 163.751 137.666 158.311 139.374 150.148L154.813 62.2029C154.965 61.3405 155.422 60.5585 156.103 59.995C156.785 59.4314 157.648 59.1226 158.539 59.1231H179.004C179.556 59.1211 180.102 59.2377 180.603 59.4652C181.104 59.6926 181.548 60.0252 181.905 60.4394C182.261 60.8536 182.52 61.3395 182.665 61.8628C182.809 62.3861 182.835 62.9341 182.74 63.4683Z" fill="black"/>
</g>
<defs>
<clipPath id="clip0_356_6">
<rect width="122.429" height="131.847" fill="white" transform="translate(63.7856 59.1328)"/>
</clipPath>
</defs>
</svg>
